<?xml version="1.0" encoding="iso-8859-1"?>
<!-- Generator: Adobe Illustrator 19.0.0, SVG Export Plug-In . SVG Version: 6.00 Build 0)  -->
<svg version="1.1" id="Layer_1" xmlns="http://www.w3.org/2000/svg" xmlns:xlink="http://www.w3.org/1999/xlink" x="0px" y="0px"
	 viewBox="0 0 512.002 512.002" style="enable-background:new 0 0 512.002 512.002;" xml:space="preserve">
<circle style="fill:#324A5E;" cx="256.001" cy="256" r="256"/>
<path style="fill:#2B3B4E;" d="M503.693,320.895L291.394,108.596l-51.079,44.947l-21.09,21.673l33.904,33.904v19.871h-110.33
	l-9.625,9.625v94.441l-35.376,26.109l153.765,152.779c1.477,0.026,2.955,0.057,4.437,0.057
	C374.962,512,474.963,430.854,503.693,320.895z"/>
<path style="fill:#E9EFF4;" d="M355.446,224.108h-94.274v-63.354h-10.343v63.354h-94.273c-15.031,0-27.262,12.791-27.262,28.515
	v83.539h10.343v-83.539c0-10.019,7.589-18.172,16.918-18.172h94.273v96.97h10.343v-96.97h94.274c9.33,0,16.918,8.152,16.918,18.172
	v83.539h10.343v-83.539C382.708,236.899,370.477,224.108,355.446,224.108z"/>
<path style="fill:#CFDBE6;" d="M355.446,224.108h-94.274v-63.354h-5.746v170.667h5.746v-96.97h94.274
	c9.33,0,16.918,8.152,16.918,18.172v83.539h10.343v-83.539C382.708,236.899,370.477,224.108,355.446,224.108z"/>
<circle style="fill:#F9B54C;" cx="256.001" cy="142.653" r="49.131"/>
<path style="fill:#F4A200;" d="M256.001,93.522c-0.193,0-0.383,0.012-0.574,0.014v98.233c0.191,0.002,0.381,0.014,0.574,0.014
	c27.134,0,49.131-21.997,49.131-49.131S283.135,93.522,256.001,93.522z"/>
<circle style="fill:#FD8469;" cx="132.311" cy="325.387" r="48.269"/>
<path style="fill:#FC6F58;" d="M132.311,277.118c26.658,0,48.269,21.611,48.269,48.269c0,26.658-21.611,48.269-48.269,48.269
	V277.118z"/>
<circle style="fill:#FD8469;" cx="256.001" cy="325.387" r="48.269"/>
<path style="fill:#FC6F58;" d="M256.001,277.118c-0.193,0-0.383,0.012-0.574,0.014v96.509c0.191,0.002,0.381,0.014,0.574,0.014
	c26.659,0,48.269-21.611,48.269-48.269S282.659,277.118,256.001,277.118z"/>
<circle style="fill:#FD8469;" cx="379.691" cy="325.387" r="48.269"/>
<path style="fill:#FC6F58;" d="M379.691,277.118c26.658,0,48.269,21.611,48.269,48.269c0,26.658-21.611,48.269-48.269,48.269
	V277.118z"/>
<g>
</g>
<g>
</g>
<g>
</g>
<g>
</g>
<g>
</g>
<g>
</g>
<g>
</g>
<g>
</g>
<g>
</g>
<g>
</g>
<g>
</g>
<g>
</g>
<g>
</g>
<g>
</g>
<g>
</g>
</svg>
